<svg xmlns="http://www.w3.org/2000/svg" viewBox="0 0 189 189" width="189" height="189"><path d="M94.589 145.478v13.019h46.765l6.235 6.235v6.235H29.118v-6.235l6.235-6.235h46.765v-13.025H15.281C6.884 145.471 0 138.584 0 130.188V32.861C0 24.464 6.877 17.58 15.281 17.58h146.143c8.415 0 15.284 6.875 15.284 15.281V64.05c-1.925-2.125-3.964-4.125-6.235-5.849v-25.34c0-4.987-4.056-9.045-9.049-9.045H15.281c-4.993 0-9.045 4.058-9.045 9.045v78.626c0 4.993 4.052 9.049 9.045 9.049h90.184c8.476 12.124 22.426 19.57 37.405 19.57 2.49 0 4.957-.268 7.398-.676l3.508 6.053H94.589v-.005zm82.362-70.708c10.863 18.816 4.396 42.977-14.432 53.822-18.815 10.863-42.965 4.415-53.828-14.425-10.859-18.804-4.396-42.953 14.42-53.813 18.808-10.863 42.971-4.403 53.84 14.416zm-5.651 3.273c-9.073-15.707-29.222-21.099-44.926-12.054-15.704 9.073-21.111 29.216-12.026 44.92 9.066 15.704 29.21 21.136 44.907 12.062 15.71-9.084 21.1-29.227 12.045-44.928zm1.12 48.119l-16.94 9.792 13.056 22.566 16.94-9.792-13.056-22.566zm14.809 25.672l-16.952 9.779c2.716 4.689 8.695 6.284 13.378 3.593s6.284-8.683 3.574-13.372zM108.058 45.64H26v6.235h82.058V45.64zM86.795 60.366H26v6.235h60.794v-6.235zm0 14.733H26v6.235h60.794v-6.235zM26 96.063h60.794v-6.235H26v6.235z"/></svg>